<svg xmlns="http://www.w3.org/2000/svg" width="100" height="40"><g fill="#1E87BF"><path d="M33.072 25.676s-3.314 12.396-15.573 12.396S2.001 25.676 2.001 25.676s3.477 9.893 15.736 9.893c12.259-.001 15.335-9.893 15.335-9.893z"/><path d="M31.598 10.274s5.884 11.138-1.758 19.587c-7.641 8.449-19.061 3.596-19.061 3.596s9.271 2.612 16.912-5.838c7.643-8.449 3.907-17.345 3.907-17.345z"/><path d="M12.299 2.679s11.267-3.29 17.184 5.486c5.917 8.775-1.246 17.819-1.246 17.819s4.663-7.605-1.255-16.381C21.065.828 12.299 2.679 12.299 2.679z"/><path d="M1.521 19.904S.469 8.322 10.016 4.278C19.563.233 26.257 9.349 26.257 9.349s-5.78-6.442-15.327-2.397-9.409 12.952-9.409 12.952z"/></g><path d="M50.148 23.559l1.436 2.918h-2.871l-1.459-2.918H39.7l-1.435 2.918H35.37l1.436-2.918 1.459-2.941 5.224-10.613 5.224 10.613 1.435 2.941zm-9.012-2.942h4.683l-2.33-4.753-2.353 4.753zm16.778 2.918h6.684v2.941H53.231l6.589-13.507h-6.565v-2.941l11.271-.023-6.612 13.53zm18.872-13.531h2.941v16.472l-2.941-2.941-6.447-6.424v9.366h-2.918V10.004l9.365 9.389v-9.389zm19.367 13.555l1.435 2.918h-2.87l-1.459-2.918h-7.554l-1.436 2.918h-2.895l1.436-2.918 1.459-2.941 5.224-10.613 5.225 10.613 1.435 2.941zm-9.012-2.942h4.683l-2.33-4.753-2.353 4.753z" fill="#68C3EE"/><path d="M67.438 35.726v-7.498h1.555c1.121 0 1.936.09 2.441.271.728.255 1.296.696 1.705 1.325s.614 1.378.614 2.248c0 .751-.162 1.411-.486 1.982-.325.571-.746.992-1.265 1.264-.518.272-1.244.408-2.179.408h-2.385zm.718-.708h.867c1.036 0 1.755-.065 2.155-.194a2.486 2.486 0 001.331-.99c.322-.477.483-1.061.483-1.749 0-.724-.175-1.342-.524-1.854-.351-.513-.838-.863-1.463-1.054-.469-.143-1.242-.214-2.319-.214h-.53v6.055zm7.179-7.122c.163 0 .302.058.416.173a.572.572 0 01.173.418c0 .16-.058.298-.173.413a.562.562 0 01-.416.174.56.56 0 01-.411-.174.567.567 0 01-.172-.413c0-.163.058-.302.172-.418a.563.563 0 01.411-.173zm-.354 2.284h.713v5.546h-.713V30.18zm6.978 0h.714v4.42c0 .777-.068 1.347-.204 1.707-.187.51-.512.902-.974 1.178s-1.018.412-1.667.412c-.476 0-.902-.067-1.281-.201a2.57 2.57 0 01-.926-.542c-.237-.227-.457-.559-.657-.994h.774c.211.366.483.639.816.815.334.177.747.265 1.24.265.486 0 .897-.091 1.232-.271.336-.182.574-.409.718-.684.143-.274.214-.717.214-1.328v-.285c-.269.34-.597.601-.984.782s-.8.272-1.235.272c-.51 0-.989-.127-1.438-.38s-.796-.594-1.041-1.021c-.245-.429-.367-.899-.367-1.412s.128-.991.383-1.435.607-.795 1.059-1.053c.45-.259.926-.388 1.426-.388.415 0 .802.086 1.161.258.358.171.705.454 1.038.849v-.964zm-2.105.546c-.404 0-.779.098-1.126.293s-.618.466-.815.811-.296.718-.296 1.118c0 .608.204 1.111.611 1.509.408.397.937.597 1.586.597.655 0 1.183-.197 1.582-.591.399-.395.6-.913.6-1.555 0-.418-.092-.791-.275-1.119s-.443-.587-.78-.777a2.16 2.16 0 00-1.087-.286zm4.595-2.83c.163 0 .302.058.416.173a.572.572 0 01.173.418c0 .16-.058.298-.173.413a.562.562 0 01-.416.174.56.56 0 01-.411-.174.567.567 0 01-.172-.413c0-.163.058-.302.172-.418a.563.563 0 01.411-.173zm-.353 2.284h.713v5.546h-.713V30.18zm2.818-2.059h.714v2.059h1.131v.617h-1.131v4.929h-.714v-4.929h-.974v-.617h.974v-2.059zm8.44 2.059v5.546h-.703v-.953c-.299.363-.635.637-1.007.82s-.779.275-1.221.275c-.785 0-1.455-.284-2.011-.854s-.834-1.262-.834-2.077c0-.799.281-1.481.842-2.049s1.234-.852 2.023-.852c.455 0 .867.097 1.235.291.369.193.692.483.972.871v-1.02h.704zm-2.851.546a2.154 2.154 0 00-1.902 1.115 2.244 2.244 0 00.002 2.239c.2.356.47.635.807.833.338.198.7.298 1.088.298.39 0 .76-.099 1.109-.296.35-.196.618-.463.807-.799s.283-.715.283-1.136c0-.641-.212-1.178-.634-1.608a2.098 2.098 0 00-1.56-.646zm4.351-2.687h.713v7.687h-.713v-7.687z" fill="#1E87BF"/></svg>